<svg id="Layer_1" data-name="Layer 1" xmlns="http://www.w3.org/2000/svg" xmlns:xlink="http://www.w3.org/1999/xlink" viewBox="0 0 1760.08 303.8"><defs><style>.cls-1{fill:#3b3b3c;}.cls-2{fill:#fff;}.cls-3{fill:url(#linear-gradient);}.cls-4{fill:url(#linear-gradient-2);}</style><linearGradient id="linear-gradient" x1="143.1" y1="-243.05" x2="129.88" y2="-265.94" gradientTransform="translate(-1170.8 3128.2) scale(9.8)" gradientUnits="userSpaceOnUse"><stop offset="0" stop-color="#ffc10e"/><stop offset="1" stop-color="#ffe96b"/></linearGradient><linearGradient id="linear-gradient-2" x1="147.39" y1="-251.51" x2="134.18" y2="-274.38" xlink:href="#linear-gradient"/></defs><title>Hustler_Logo_Primary</title><path id="_Path_" data-name="&lt;Path&gt;" class="cls-1" d="M371.42,672.76c0,51.94-41.16,90.16-92.12,90.16H94.08c-46.06,0-90.16-37.24-90.16-90.16V549.28c0-52.92,43.12-90.16,90.16-90.16H281.26c46.06,0,90.16,37.24,90.16,90.16V672.76Z" transform="translate(-3.92 -459.12)"/><g id="_Group_" data-name="&lt;Group&gt;"><g id="_Group_2" data-name="&lt;Group&gt;"><path id="_Compound_Path_" data-name="&lt;Compound Path&gt;" class="cls-1" d="M505.68,627.68v48a1,1,0,0,1-1,1H442a1,1,0,0,1-1-1V587.5a8.43,8.43,0,0,0-7.84-7.84H426.3a1,1,0,0,1-1-1V548.3a1,1,0,0,1,1-1h79.38a1,1,0,0,1,1,1v47h48v-48a1,1,0,0,1,1-1H617.4a1,1,0,0,1,1,1v88.2c0,3.92,3.92,7.84,7.84,7.84h6.86a1,1,0,0,1,1,1v30.38a1,1,0,0,1-1,1H553.7a1,1,0,0,1-1-1v-47h-47Zm253.82-49h-6.86a1,1,0,0,1-1-1V547.32a1,1,0,0,1,1-1H832a1,1,0,0,1,1,1v88.2c0,3.92,3.92,7.84,7.84,7.84h6.86a1,1,0,0,1,1,1v30.38a1,1,0,0,1-1,1H695.8c-26.46,0-49-17.64-49-40.18v-88.2a1,1,0,0,1,1-1H710.5a1,1,0,0,1,1,1v88.2c0,3.92,3.92,7.84,7.84,7.84h48V586.52A7.73,7.73,0,0,0,759.5,578.68Zm107.8,65.66h0l90.16-1c3.92,0,7.84-3.92,7.84-7.84a8.43,8.43,0,0,0-7.84-7.84h-48c-26.46,0-49-17.64-49-40.18s21.56-40.18,49-40.18H1014.3a1,1,0,0,1,1,1v30.38a1,1,0,0,1-1,1H940.8a7.84,7.84,0,1,0,0,15.68h48c26.46,0,49,17.64,49,40.18s-21.56,40.18-49,40.18H868.28a1,1,0,0,1-1-1V644.34h0Zm348.88-65.66h-6.86a1,1,0,0,1-1-1V547.32a1,1,0,0,1,1-1h79.38a1,1,0,0,1,1,1v88.2a8.43,8.43,0,0,0,7.84,7.84h44.1a1,1,0,0,1,1,1v30.38a1,1,0,0,1-1,1H1273c-26.46,0-49-17.64-49-40.18v-48C1224,582.6,1221.08,578.68,1216.18,578.68ZM1615,642.38V675.7a1,1,0,0,1-1,1h-62.72a1,1,0,0,1-1-1V587.5c0-3.92-3.92-7.84-7.84-7.84h-6.86a1,1,0,0,1-1-1V548.3a1,1,0,0,1,1-1h152.88c26.46,0,49,17.64,49,40.18,0,14.7-9.8,27.44-24.5,35.28V636.5a8.43,8.43,0,0,0,7.84,7.84h14.7a1,1,0,0,1,1,1V675.7a1,1,0,0,1-1,1H1695.4c-26.46,0-49-17.64-49-40.18v-7.84h-14.7a1,1,0,0,1-1-1V597.3a1,1,0,0,1,1-1h31.36a8.43,8.43,0,0,0,7.84-7.84c0-3.92-3.92-7.84-7.84-7.84h-48v61.74Zm-478.24-63.7h0c-1,6.86-1,56.84-1,56.84,0,3.92,3.92,7.84,7.84,7.84h49a1,1,0,0,1,1,1v30.38a1,1,0,0,1-1,1h-73.5c-26.46,0-49-17.64-49-40.18v-48a8.43,8.43,0,0,0-7.84-7.84h-27.44a1,1,0,0,1-1-1V548.3a1,1,0,0,1,1-1H1190.7a1,1,0,0,1,1,1v30.38a1,1,0,0,1-1,1Zm290.08,64.68H1519a1,1,0,0,1,1,1v30.38a1,1,0,0,1-1,1H1402.38c-26.46,0-48-17.64-49-39.2v-50c0-3.92-3.92-7.84-8.82-7.84h-6.86a1,1,0,0,1-1-1V547.32a1,1,0,0,1,1-1H1519a1,1,0,0,1,1,1V577.7a1,1,0,0,1-1,1H1418.06v15.68h84.28a1,1,0,0,1,1,1v30.38a1,1,0,0,1-1,1h-84.28v7.84A8.78,8.78,0,0,0,1426.88,643.36Z" transform="translate(-3.92 -459.12)"/></g></g><g id="_Group_3" data-name="&lt;Group&gt;"><path id="_Compound_Path_2" data-name="&lt;Compound Path&gt;" class="cls-2" d="M1760.08,566.92a12.42,12.42,0,0,1-8.82,3.92,12,12,0,0,1-8.82-3.92,12.42,12.42,0,0,1-3.92-8.82,12,12,0,0,1,3.92-8.82,12.42,12.42,0,0,1,8.82-3.92,12,12,0,0,1,8.82,3.92,12.42,12.42,0,0,1,3.92,8.82C1764,562,1763,565,1760.08,566.92Zm-15.68-15.68a10.58,10.58,0,0,0-2.94,6.86c0,2.94,1,4.9,2.94,7.84a10.58,10.58,0,0,0,6.86,2.94,8.9,8.9,0,0,0,6.86-2.94,11.13,11.13,0,0,0,2.94-7.84,8.9,8.9,0,0,0-2.94-6.86A9.47,9.47,0,0,0,1744.4,551.24Zm6.86,1h3.92c1,1,2,2,2,2.94a3.6,3.6,0,0,1-1,2.94,3.42,3.42,0,0,1-2,1,3.43,3.43,0,0,1,2,1c0,1,1,1,1,2V565h-2v-2c0-2,0-2.94-1-2.94h-4.9V565h-2V552.22h3.92Zm2.94,2c-1,0-2-1-2.94-1h-2v4.9h3.92c1,0,1-1,1-2C1755.18,555.16,1755.18,554.18,1754.2,554.18Z" transform="translate(-3.92 -459.12)"/></g><g id="_Group_4" data-name="&lt;Group&gt;"><path id="_Path_2" data-name="&lt;Path&gt;" class="cls-3" d="M215.6,664.92a2.11,2.11,0,0,0,2,2H332.22c1,0,2,1,2,2.94-2.94,21.56-25.48,38.22-48,38.22h-196c-28.42,0-49-23.52-49-49v-100a2.11,2.11,0,0,1,2-2H76.44a8.78,8.78,0,0,1,8.82,8.82v89.18A13,13,0,0,0,98,667.86h59.78a2.11,2.11,0,0,0,2-2v-51a2.11,2.11,0,0,1,2-2h51a2.11,2.11,0,0,1,2,2Z" transform="translate(-3.92 -459.12)"/></g><g id="_Group_5" data-name="&lt;Group&gt;"><path id="_Path_3" data-name="&lt;Path&gt;" class="cls-4" d="M160.72,520.86a2.11,2.11,0,0,0-2-2H44.1c-1,0-2-1-2-2.94,2.94-21.56,25.48-38.22,48-38.22h195c28.42,0,49,23.52,49,49v100a2.11,2.11,0,0,1-2,2H298.9a8.78,8.78,0,0,1-8.82-8.82V530.66c0-8.82-6.86-12.74-12.74-12.74H217.56a2.11,2.11,0,0,0-2,2v51a2.11,2.11,0,0,1-2,2h-51a2.11,2.11,0,0,1-2-2v-50h0Z" transform="translate(-3.92 -459.12)"/></g></svg>